<svg xmlns="http://www.w3.org/2000/svg" xmlns:svg="http://www.w3.org/2000/svg" id="svg834" width="793.701" height="1122.52" version="1.1" viewBox="0 0 793.701 1122.52" xml:space="preserve"><metadata id="metadata840"/><g id="g842" transform="matrix(1.3333333,0,0,-1.3333333,0,1122.52)"><text transform="matrix(1,0,0,-1,212.5984,669.8976)" style="font-variant:normal;font-weight:700;font-stretch:normal;font-size:12px;font-family:'Source Sans Pro';-inkscape-font-specification:SourceSansPro-Bold;writing-mode:lr-tb;fill:#231f20;fill-opacity:1;fill-rule:nonzero;stroke:none" id="text846"><tspan id="tspan844" x="0 6.876 13.692 17.784 24.648 30.972 37.824 48.108 54.192 60.516 67.38 71.976 76.415 82.739 89.147 91.547 95.639 102.455 107.231 109.631 116.507 119.819 126.035 128.435 137.579 140.891 145.366 151.774 155.206 158.518 164.734 171.61 176.926 182.53 189.382 195.706 203.962" y="0">Aufnahmeantrag für die Mitgliedschaf</tspan></text><text transform="matrix(1,0,0,-1,212.5984,630.8976)" style="font-variant:normal;font-weight:400;font-stretch:normal;font-size:10px;font-family:'Source Sans Pro';-inkscape-font-specification:SourceSansPro-Regular;writing-mode:lr-tb;fill:#231f20;fill-opacity:1;fill-rule:nonzero;stroke:none" id="text850"><tspan id="tspan848" x="0 6.52 8.98 13.94 17.41 25.7 28.16 31.54 33.54 39.07 43.889 48.929 54.399 57.779 61.009 66.049 70.949 75.909 77.909 80.369 84.929 90.369" y="0">Hiermit beantrage ich:</tspan></text><g id="g852" transform="translate(215.1027,593.3977)"><path d="M 0,0 H 293.631" style="fill:none;stroke:#231f20;stroke-width:1;stroke-linecap:round;stroke-linejoin:round;stroke-miterlimit:4;stroke-dasharray:0,2.004;stroke-dashoffset:0;stroke-opacity:1" id="path854"/></g><g id="g856" transform="translate(213.0984,593.3977)"><path d="M 0,0 V 0 M 296.638,0 V 0" style="fill:none;stroke:#231f20;stroke-width:1;stroke-linecap:round;stroke-linejoin:round;stroke-miterlimit:4;stroke-dasharray:none;stroke-opacity:1" id="path858"/></g><text transform="matrix(1,0,0,-1,212.5984,578.8976)" style="font-variant:normal;font-weight:400;font-stretch:normal;font-size:10px;font-family:'Source Sans Pro';-inkscape-font-specification:SourceSansPro-Regular;writing-mode:lr-tb;fill:#231f20;fill-opacity:1;fill-rule:nonzero;stroke:none" id="text862"><tspan id="tspan860" x="0 6.47 11.51 19.8 24.76 27.25 29.25 34.25 39.67 43.14 48.61 53.65 61.94 66.9 69.39 71.39 77.56 82.52 88.05 93.49 96.96 100.238 104.428 109.978 114.878 118.258 123.698 131.988" y="0">Name, Vorname, Geburtsdatum</tspan></text><g id="g864" transform="translate(215.1027,541.3977)"><path d="M 0,0 H 293.631" style="fill:none;stroke:#231f20;stroke-width:1;stroke-linecap:round;stroke-linejoin:round;stroke-miterlimit:4;stroke-dasharray:0,2.004;stroke-dashoffset:0;stroke-opacity:1" id="path866"/></g><g id="g868" transform="translate(213.0984,541.3977)"><path d="M 0,0 V 0 M 296.638,0 V 0" style="fill:none;stroke:#231f20;stroke-width:1;stroke-linecap:round;stroke-linejoin:round;stroke-miterlimit:4;stroke-dasharray:none;stroke-opacity:1" id="path870"/></g><text transform="matrix(1,0,0,-1,212.5984,526.8976)" style="font-variant:normal;font-weight:400;font-stretch:normal;font-size:10px;font-family:'Source Sans Pro';-inkscape-font-specification:SourceSansPro-Regular;writing-mode:lr-tb;fill:#231f20;fill-opacity:1;fill-rule:nonzero;stroke:none" id="text874"><tspan id="tspan872" x="0 5.66 10.52 15.91 18.4 20.4 28.26 33.68 39.12 44.59 50.01 53.48 56.929 59.419 61.419 66.519 69.899 73.129 78.169 83.929 88.889 91.379 93.379 99.899 104.939 110.379 114.569 120.039 125.479 133.769 142.059 147.019" y="0">PLZ, Wohnort, Straße, Hausnummer</tspan></text><g id="g876" transform="translate(215.1027,489.3977)"><path d="M 0,0 H 293.631" style="fill:none;stroke:#231f20;stroke-width:1;stroke-linecap:round;stroke-linejoin:round;stroke-miterlimit:4;stroke-dasharray:0,2.004;stroke-dashoffset:0;stroke-opacity:1" id="path878"/></g><g id="g880" transform="translate(213.0984,489.3977)"><path d="M 0,0 V 0 M 296.638,0 V 0" style="fill:none;stroke:#231f20;stroke-width:1;stroke-linecap:round;stroke-linejoin:round;stroke-miterlimit:4;stroke-dasharray:none;stroke-opacity:1" id="path882"/></g><text transform="matrix(1,0,0,-1,212.5984,474.8976)" style="font-variant:normal;font-weight:400;font-stretch:normal;font-size:10px;font-family:'Source Sans Pro';-inkscape-font-specification:SourceSansPro-Regular;writing-mode:lr-tb;fill:#231f20;fill-opacity:1;fill-rule:nonzero;stroke:none" id="text886"><tspan id="tspan884" x="0 5.27 13.56 18.6 21.06" y="0">Email</tspan></text><g id="g888" transform="translate(215.1027,437.3977)"><path d="M 0,0 H 293.631" style="fill:none;stroke:#231f20;stroke-width:1;stroke-linecap:round;stroke-linejoin:round;stroke-miterlimit:4;stroke-dasharray:0,2.004;stroke-dashoffset:0;stroke-opacity:1" id="path890"/></g><g id="g892" transform="translate(213.0984,437.3977)"><path d="M 0,0 V 0 M 296.638,0 V 0" style="fill:none;stroke:#231f20;stroke-width:1;stroke-linecap:round;stroke-linejoin:round;stroke-miterlimit:4;stroke-dasharray:none;stroke-opacity:1" id="path894"/></g><text transform="matrix(1,0,0,-1,212.5984,422.8976)" style="font-variant:normal;font-weight:400;font-stretch:normal;font-size:10px;font-family:'Source Sans Pro';-inkscape-font-specification:SourceSansPro-Regular;writing-mode:lr-tb;fill:#231f20;fill-opacity:1;fill-rule:nonzero;stroke:none" id="text898"><tspan id="tspan896" x="0 5.04 10.57 12.57 18.12 23.08 31.37" y="0">ab dem</tspan></text><path d="m 212.848,383.148 h 8.254 v 8.254 h -8.254 z" style="fill:none;stroke:#231f20;stroke-width:.5;stroke-linecap:butt;stroke-linejoin:miter;stroke-miterlimit:4;stroke-dasharray:none;stroke-opacity:1" id="path900"/><text transform="matrix(1,0,0,-1,223.3524,383.8976)" style="font-variant:normal;font-weight:400;font-stretch:normal;font-size:10px;font-family:'Source Sans Pro';-inkscape-font-specification:SourceSansPro-Regular;writing-mode:lr-tb;fill:#231f20;fill-opacity:1;fill-rule:nonzero;stroke:none" id="text904"><tspan id="tspan902" x="0 6.254 11.804 14.264 19.224 21.224 24.594 29.453 34.493 39.933 42.483 47.523 50.893 55.853 57.853 65.123 67.583 70.863 75.903 78.453 80.913 85.873 91.423 95.613 100.173 105.613 110.653 116.593 118.593 121.053 129.343 131.343 136.342 141.302 144.671 149.631 152.091 157.561 159.561 165.251 170.691 176.181 180.851 182.851 188.731 193.691 197.161 199.711 202.171 207.641 209.641 214.601 217.091 218.34 222.84 225.33" y="0">die reguläre Mitgliedschaf im Verein Ruby Berlin e. V.</tspan></text><text transform="matrix(1,0,0,-1,229.6124,370.8976)" style="font-variant:normal;font-weight:400;font-stretch:normal;font-size:10px;font-family:'Source Sans Pro';-inkscape-font-specification:SourceSansPro-Regular;writing-mode:lr-tb;fill:#231f20;fill-opacity:1;fill-rule:nonzero;stroke:none" id="text908"><tspan id="tspan906" x="0 6.15 11.11 14.58 16.58 23.85 26.31 29.589 34.629 37.179 39.639 44.599 50.149 54.339 59.869 64.829 67.289 70.669 73.899 78.939 83.979 85.979 91.509 96.368 99.748 102.978 108.018 113.058 116.438 118.438 123.408 128.378 130.378 135.648 141.088 144.458 149.878 151.878 157.428 160.798 166.218 168.218 174.008 179.048 181.598 186.558 192.028 197.578 202.538 206.008 208.478 213.518 218.958" y="0">Der Mitgliedsbeitrag beträgt 10 Euro pro Kalenderjahr</tspan></text><path d="m 212.848,331.148 h 8.254 v 8.254 h -8.254 z" style="fill:none;stroke:#231f20;stroke-width:.5;stroke-linecap:butt;stroke-linejoin:miter;stroke-miterlimit:4;stroke-dasharray:none;stroke-opacity:1" id="path910"/><text transform="matrix(1,0,0,-1,223.3524,331.8976)" style="font-variant:normal;font-weight:400;font-stretch:normal;font-size:10px;font-family:'Source Sans Pro';-inkscape-font-specification:SourceSansPro-Regular;writing-mode:lr-tb;fill:#231f20;fill-opacity:1;fill-rule:nonzero;stroke:none" id="text916"><tspan id="tspan912" x="0 6.254 11.804 14.264 19.224 21.224 26.023 31.443 34.813 40.363 45.323 48.793 57.083 59.543 62.823 67.863 70.413 72.873 77.833 83.383 87.573 92.133 97.573 102.613 108.553 110.553 113.013 121.303 123.303 128.302 133.262 136.632 141.592 144.052 149.522 151.522 157.212 162.652 168.141 172.811 174.811 180.691 185.651 189.121 191.671 194.131 199.601 201.601 206.561 209.051 210.3 214.8" y="0">die Fördermitgliedschaf im Verein Ruby Berlin e. V.</tspan><tspan id="tspan914" x="-10.75 6.258 8.888 13.448 18.888 20.888 29.178 34.598 39.158 44.598 47.837 52.797 54.797 60.347 65.307 70.777 72.777 78.467 83.907 89.397 94.067 96.067 101.947 106.907 110.377 112.927 115.387 120.857 122.857 127.817 130.307 131.56 136.06 138.55 140.55 143.01 151.3 153.3 158.1 163.14 168.58 172.05 174.05 182.34 184.8 188.18" y="13"> Ich möchte den Ruby Berlin e. V. im Jahr mit</tspan></text><g id="g918" transform="translate(416.0443,319.3977)"><path d="M 0,0 H 25.261" style="fill:none;stroke:#231f20;stroke-width:1;stroke-linecap:round;stroke-linejoin:round;stroke-miterlimit:4;stroke-dasharray:0,2.021;stroke-dashoffset:0;stroke-opacity:1" id="path920"/></g><g id="g922" transform="translate(414.0234,319.3977)"><path d="M 0,0 V 0 M 28.293,0 V 0" style="fill:none;stroke:#231f20;stroke-width:1;stroke-linecap:round;stroke-linejoin:round;stroke-miterlimit:4;stroke-dasharray:none;stroke-opacity:1" id="path924"/></g><text transform="matrix(1,0,0,-1,442.8161,318.8976)" style="font-variant:normal;font-weight:400;font-stretch:normal;font-size:10px;font-family:'Source Sans Pro';-inkscape-font-specification:SourceSansPro-Regular;writing-mode:lr-tb;fill:#231f20;fill-opacity:1;fill-rule:nonzero;stroke:none" id="text930"><tspan id="tspan926" x="0 2 7.27 12.71 16.08 21.5 23.5 26.53 34.82 37.28 42.75 48.3 50.79 52.79 57.76 62.73 67.7 69.7 74.67 77.7 79.7 93.783" y="0">Euro (mind. 120 €) </tspan><tspan id="tspan928" x="-230.22 -213.212 -207.772 -202.302 -199.062 -194.102 -190.672 -186.682 -183.302 -177.862 -174.482 -170.333 -165.373 -159.903 -157.413 -155.413 -150.143 -147.683 -142.213 -137.253 -135.253 -130.453 -125.033 -121.663 -116.113 -111.153 -107.683 -99.393 -96.933 -93.654 -88.614 -86.064 -83.604 -78.644 -73.094 -68.904 -64.344 -58.904 -53.864 -47.924 -45.924 -40.884 -38.424 -33.065 -29.685 -27.685 -19.395 -16.935 -13.465 -11.465 -6.695 -1.735 .725 6.195 8.195 13.294 16.674 19.134 27.424 35.714 39.084 44.044 48.604 54.044 57.494 59.984" y="13"> unterstützen. Eine Fördermitgliedschaf gibt mir kein Stimmrecht.</tspan></text><text transform="matrix(1,0,0,-1,212.5961,292.8976)" style="font-variant:normal;font-weight:400;font-stretch:normal;font-size:10px;font-family:'Source Sans Pro';-inkscape-font-specification:SourceSansPro-Regular;writing-mode:lr-tb;fill:#231f20;fill-opacity:1;fill-rule:nonzero;stroke:none" id="text936"><tspan id="tspan932" x="0 17.008 23.158 28.118 31.588 33.588 39.468 44.327 47.707 50.937 55.977 61.017 63.017 65.477 69.467 72.847 74.847 78.837 82.077 87.037 92.477 97.437 100.907 103.457 105.917 110.477 115.917 117.917 122.957 125.507 129.697 131.697 137.037 142.587 147.547 153.017 158.567 163.527 165.527 170.567 176.097 180.287 185.145 188.525 192.775 198.165 203.205 206.105" y="0">Der Betrag ist steuerlich als Spende absetzbar.</tspan><tspan id="tspan934" x="0 2.63 7.19 12.63 14.63 19.59 23.06 27.829 32.789 38.259 43.729 48.689 50.689 56.239 58.699 63.659 65.659 70.999 75.899 79.279 83.429 88.869 94.339 99.379 101.379 106.819 112.289 117.839 119.839 126.479 129.848 135.398 140.868 146.308 151.778 156.678 161.638 167.108 169.108 174.658 179.618 183.808 185.808 190.807 195.767 199.137 204.097 206.557 212.027 216.217 218.217 223.257 228.727" y="41.35">Ich erkenne die Satzung und Ordnungen des Vereins an.</tspan></text><text transform="matrix(1,0,0,-1,212.5961,225.5476)" style="font-variant:normal;font-weight:400;font-stretch:normal;font-size:10px;font-family:'Source Sans Pro';-inkscape-font-specification:SourceSansPro-Regular;writing-mode:lr-tb;fill:#231f20;fill-opacity:1;fill-rule:nonzero;stroke:none" id="text940"><tspan id="tspan938" x="0 7.27 9.73 13.11 15.11 20.66 25.62 29.09 31.09 36.43 41.98 46.94 49.4 53.96 59.4 64.36 67.83 73.27 78.74 83.78 86.27 88.27 94.72 100.25 105.21 108.68 116.97 119.43 122.608 125.988 128.538 133.978 139.448 144.488 146.488 151.928 157.398 162.948 164.948 169.947 174.907 178.137 183.177 186.647 192.177 197.137 199.597 202.977 208.417 213.887 218.927" y="0">Mit der Speicherung, Übermittlung und Verarbeitung</tspan></text><text transform="matrix(1,0,0,-1,212.5961,212.5476)" style="font-variant:normal;font-weight:400;font-stretch:normal;font-size:10px;font-family:'Source Sans Pro';-inkscape-font-specification:SourceSansPro-Regular;writing-mode:lr-tb;fill:#231f20;fill-opacity:1;fill-rule:nonzero;stroke:none" id="text944"><tspan id="tspan942" x="0 8.29 13.25 15.71 21.18 26.14 29.61 31.61 37.16 42.12 45.549 49.739 55.159 60.629 65.589 71.059 76.589 81.549 85.698 91.118 96.018 100.978 106.448 111.408 116.878 118.878 125.028 129.928 133.168 138.128 143.598 145.598 148.518 153.958 157.428 159.428 164.428 169.388 172.757 177.717 180.177 185.647 189.837 194.087 201.227 206.187 210.747 215.516 220.476" y="0">meiner personenbezogenen Daten für Vereinszwecke</tspan></text><text transform="matrix(1,0,0,-1,212.5961,199.5476)" style="font-variant:normal;font-weight:400;font-stretch:normal;font-size:10px;font-family:'Source Sans Pro';-inkscape-font-specification:SourceSansPro-Regular;writing-mode:lr-tb;fill:#231f20;fill-opacity:1;fill-rule:nonzero;stroke:none" id="text948"><tspan id="tspan946" x="0 4.9 9.86 18.15 23.19 28.95 30.95 36.83 42.27 47.74 53.29 58.25 62.44 67.99 72.889 76.129 81.089 86.559 90.749 95.309 100.749 106.189 109.569 113.759 118.659 123.619 127.809 132.668 136.048 140.298 142.298 147.828 150.288 155.758 157.758 160.218 164.778 170.218 172.218 177.178 179.638 185.108 189.737 194.697 198.127 202.117 205.287 210.327 215.797 221.347 226.307 231.777" y="0">gemäß Bundesdatenschutzgesetz bin ich einverstanden.</tspan></text><g id="g950" transform="translate(215.1027,149.0513)"><path d="M 0,0 H 293.631" style="fill:none;stroke:#231f20;stroke-width:1;stroke-linecap:round;stroke-linejoin:round;stroke-miterlimit:4;stroke-dasharray:0,2.004;stroke-dashoffset:0;stroke-opacity:1" id="path952"/></g><g id="g954" transform="translate(213.0984,149.0513)"><path d="M 0,0 V 0 M 296.638,0 V 0" style="fill:none;stroke:#231f20;stroke-width:1;stroke-linecap:round;stroke-linejoin:round;stroke-miterlimit:4;stroke-dasharray:none;stroke-opacity:1" id="path956"/></g><text transform="matrix(1,0,0,-1,212.5984,134.5512)" style="font-variant:normal;font-weight:400;font-stretch:normal;font-size:10px;font-family:'Source Sans Pro';-inkscape-font-specification:SourceSansPro-Regular;writing-mode:lr-tb;fill:#231f20;fill-opacity:1;fill-rule:nonzero;stroke:none" id="text960"><tspan id="tspan958" x="0 6.45 11.92 15.16 20.12 23.55 27.74 32.3 37.74 41.21 43.67" y="0">Unterschrif</tspan></text><text transform="matrix(1,0,0,-1,213.4488,85.8897)" style="font-variant:normal;font-weight:400;font-stretch:normal;font-size:8px;font-family:'Source Sans Pro';-inkscape-font-specification:SourceSansPro-Regular;writing-mode:lr-tb;fill:#231f20;fill-opacity:1;fill-rule:nonzero;stroke:none" id="text964"><tspan id="tspan962" x="0 5.216 7.184 11.56 17.272 21.24 23.208 26.56 28.552 30.152 34.424 38.76 43.071 47.103 49.143 53.583 55.183 59.535 63.959 67.927 70.703 72.303 76.743 78.711 82.679 84.279 88.582 92.934 95.27 99.646 103.678 108.03 114.662 118.63 120.23 124.198 128.574 131.198 134.55 138.198 142.55 144.518 148.486 152.926 156.894 161.27 162.87 168.614 172.966 175.661 180.101 184.069 185.669 191.381 195.349 198.045 202.485 206.453 210.829 212.429 216.869 220.837 223.613" y="0">Hinweis: Sobald über die Aufnahme entschieden wurde werden per</tspan></text><text transform="matrix(1,0,0,-1,213.4488,73.8897)" style="font-variant:normal;font-weight:400;font-stretch:normal;font-size:8px;font-family:'Source Sans Pro';-inkscape-font-specification:SourceSansPro-Regular;writing-mode:lr-tb;fill:#231f20;fill-opacity:1;fill-rule:nonzero;stroke:none" id="text970"><tspan id="tspan966" x="0 4.216 10.848 14.88 16.848 18.888 20.488 24.928 26.896 30.864 32.464 36.647 40.679 45.031 47.071 51.423 55.799 59.831 63.183 65.151 69.527 71.782 76.118 78.894 85.526 89.446 92.15 94.118 98.454 102.83 106.798 111.174 112.774 115.11 119.462 122.238 123.838 128.278 130.246 134.214 135.814 141.63 143.598 146.222 150.254 152.294 154.262 158.23 162.67 166.022 170.446 174.414 176.382 179.086 181.669 185.701 189.621 193.589 195.189 198.509 202.861 206.781 210.749 214.101 218.133 222.509 226.949 229.708 231.7" y="0">Email die Zahlungsinformationen für die Mitgliedsbeiträge zugesandt. </tspan><tspan id="tspan968" x="0 4.216 6.96 10.152 12.856 14.456 18.832 22.864 26.512 30.864 32.464 36.68 38.648 43.024 46.927 50.959 55.335 59.367 60.967 65.407 69.375 72.151 73.751 77.935 81.967 86.319 88.359 92.711 97.087 101.119 102.719 104.687 107.878 110.582 112.182 116.622 118.59 122.558 124.158 129.974 131.942 134.566 138.598 140.638 142.606 146.574 151.014 154.366 158.014 162.366 166.398 171.15 172.75 178.494 180.462 183.238 187.198 190.55 194.582 201.214" y="12">Erst nach Eingang der Zahlung ist die Mitgliedschaf wirksam.</tspan></text><text transform="matrix(1,0,0,-1,62.3622,771.1181)" style="font-variant:normal;font-weight:900;font-stretch:normal;font-size:32px;font-family:'Source Sans Pro Black';-inkscape-font-specification:SourceSansPro-Black;writing-mode:lr-tb;fill:#231f20;fill-opacity:1;fill-rule:nonzero;stroke:none" id="text974"><tspan id="tspan972" x="0 20.16 38.656 56.896" y="0">Ruby</tspan></text><text transform="matrix(1,0,0,-1,62.366,749.1101)" style="font-variant:normal;font-weight:900;font-stretch:normal;font-size:21px;font-family:'Source Sans Pro Black';-inkscape-font-specification:SourceSansPro-Black;writing-mode:lr-tb;fill:#231f20;fill-opacity:1;fill-rule:nonzero;stroke:none" id="text978"><tspan id="tspan976" x="0 12.852 23.898 32.676 38.934 44.982 57.204 61.404 72.45 77.488 87.82" y="0">Berlin e. V.</tspan></text><text transform="matrix(1,0,0,-1,63.7795,721.8661)" style="font-variant:normal;font-weight:700;font-stretch:normal;font-size:12px;font-family:'Source Sans Pro';-inkscape-font-specification:SourceSansPro-Bold;writing-mode:lr-tb;fill:#d22027;fill-opacity:1;fill-rule:nonzero;stroke:none" id="text982"><tspan id="tspan980" x="0 4.776 11.592 18.372 24.624 31.5 37.716 42.492 45.924 49.236 56.1 59.579 66.239 70.895" y="0">rubyberlin.org</tspan></text></g></svg>